<?xml version="1.0" encoding="utf-8"?>
<!-- Generator: Adobe Illustrator 23.1.0, SVG Export Plug-In . SVG Version: 6.00 Build 0)  -->
<svg version="1.1" id="Слой_1" xmlns="http://www.w3.org/2000/svg" xmlns:xlink="http://www.w3.org/1999/xlink" x="0px" y="0px"
	 viewBox="0 0 220 220" style="enable-background:new 0 0 220 220;" xml:space="preserve">
<style type="text/css">
	.st0{opacity:0.1;fill:#FFFFFF;enable-background:new    ;}
	.st1{fill:#FFD700;}
	.st2{fill:#FFFFFF;}
</style>
<path class="st0" d="M39,10h194c1.7,0,3,1.3,3,3v194c0,1.7-1.3,3-3,3H39c-1.7,0-3-1.3-3-3V13C36,11.3,37.3,10,39,10z"/>
<path class="st1" d="M3,0h214c1.7,0,3,1.3,3,3v214c0,1.7-1.3,3-3,3H3c-1.7,0-3-1.3-3-3V3C0,1.3,1.3,0,3,0z"/>
<g>
	<path class="st2" d="M139.7,115.3c3.5-2.7,5.3-5.8,5.3-9.3v-0.4c0-1.8-0.5-3.5-1.5-5.4c-2.4-3.5-5.4-5.2-9.1-5.2h-18.2
		c-1.1-2.4-2.6-4.6-4.5-6.7c-4.4-4.2-9.4-6.2-15.1-6.2c-3.8,0-7.3,0.9-10.5,2.7c-2.3,1.2-4.5,3.1-6.6,5.7v0.1h16.7
		c3.3,0,6.2,1,8.6,3c3.1,2.8,4.7,6,4.7,9.9v0.4c0,2.5-0.8,5-2.3,7.3c-2.8,3.7-6.3,5.5-10.5,5.5c-2.6,0-5-0.7-7.3-2.2
		c-3.8-2.8-5.7-6.4-5.7-10.7v-0.2c0-0.9,0.2-2.3,0.5-4.2c0-0.2,0-0.5-0.1-1c-0.7-2.3-2.1-3.5-4.1-3.5h-0.4c-1.4,0-2.6,0.8-3.6,2.3
		c-0.7,2-1,4.1-1,6.4c0,5.8,2.1,11,6.4,15.3c4.4,4.2,9.4,6.2,15.1,6.2c4.1,0,7.8-1,11.1-3.1v12c0,0.2,0.1,0.6,0.2,1.1
		c0.9,1.9,2.2,2.9,3.9,2.9h0.2c0.3,0,0.5,0,0.7-0.1c2.4-0.6,3.6-2.1,3.6-4.5v-21.1c0,0,0-0.1,0-0.1c1.2-2.7,1.8-5.6,1.8-8.7
		c0,0,0,0,0-0.1h16.6c1.1,0.4,1.6,1.1,1.6,2.1v0.1c0,0.4-0.1,0.8-0.4,1.2l-9.7,9.1c-3.8,3-5.7,6.2-5.7,9.9v0.9c0,1.9,0.6,3.9,1.8,6
		c2.6,3.5,5.8,5.3,9.6,5.3h8.9c0.5,0,1.1-0.1,1.7-0.4c1.6-0.9,2.5-2.2,2.5-3.7v-0.4c0-0.2,0-0.4-0.1-0.7c-0.7-2.3-2.2-3.4-4.3-3.4
		h-8.4c-0.5,0-0.8,0-1-0.1c-1.5-0.6-2.3-1.6-2.3-2.9c0-0.7,0.2-1.4,0.6-1.9C129.8,124.1,133.1,121.1,139.7,115.3z"/>
</g>
</svg>
